<?xml version="1.0" encoding="utf-8"?>
<!-- Generator: Adobe Illustrator 19.0.0, SVG Export Plug-In . SVG Version: 6.00 Build 0)  -->
<svg version="1.1" id="Capa_1" xmlns="http://www.w3.org/2000/svg" xmlns:xlink="http://www.w3.org/1999/xlink" x="0px" y="0px"
	 viewBox="-269 271 60 60" style="enable-background:new -269 271 60 60;" xml:space="preserve">
<style type="text/css">
	.st0{fill:#999999;}
</style>
<g>
	<path class="st0" d="M-210,307h-1v-35c0-0.6-0.4-1-1-1h-54c-0.6,0-1,0.4-1,1v35h-1c-0.6,0-1,0.4-1,1v13c0,0.6,0.4,1,1,1h10v-2h-9
		v-11h1h54h1v11h-25v2h26c0.6,0,1-0.4,1-1v-13C-209,307.4-209.4,307-210,307z M-265,307v-34h52v34H-265z"/>
	<path class="st0" d="M-235,277h-27c-0.6,0-1,0.4-1,1v24c0,0.6,0.4,1,1,1h27c0.6,0,1-0.4,1-1v-24C-234,277.4-234.4,277-235,277z
		 M-236,295h-7v-16h7V295z M-245,279v16h-16v-16H-245z M-261,301v-4h25v4H-261z"/>
	<path class="st0" d="M-234,315v-2h-5h-16h-5v2h4v15c0,0.6,0.4,1,1,1h16c0.6,0,1-0.4,1-1v-15H-234z M-244,315c0,1.1-0.9,2-2,2h-2
		c-1.1,0-2-0.9-2-2H-244z M-240,329h-14v-14h2c0,2.2,1.8,4,4,4h2c2.2,0,4-1.8,4-4h2V329z"/>
	<path class="st0" d="M-216,277h-14c-0.6,0-1,0.4-1,1v6c0,0.6,0.4,1,1,1h14c0.6,0,1-0.4,1-1v-6C-215,277.4-215.4,277-216,277z
		 M-217,283h-12v-4h12V283z"/>
	<rect x="-230" y="288" class="st0" width="2" height="2"/>
	<rect x="-226" y="288" class="st0" width="2" height="2"/>
	<rect x="-222" y="288" class="st0" width="2" height="2"/>
	<rect x="-218" y="288" class="st0" width="2" height="2"/>
	<rect x="-230" y="292" class="st0" width="2" height="2"/>
	<rect x="-226" y="292" class="st0" width="2" height="2"/>
	<rect x="-222" y="292" class="st0" width="2" height="2"/>
	<rect x="-218" y="292" class="st0" width="2" height="2"/>
	<rect x="-230" y="296" class="st0" width="2" height="2"/>
	<rect x="-226" y="296" class="st0" width="2" height="2"/>
	<rect x="-222" y="296" class="st0" width="2" height="2"/>
	<rect x="-218" y="296" class="st0" width="2" height="2"/>
	<rect x="-230" y="300" class="st0" width="2" height="2"/>
	<rect x="-226" y="300" class="st0" width="2" height="2"/>
	<rect x="-222" y="300" class="st0" width="2" height="2"/>
	<rect x="-218" y="300" class="st0" width="2" height="2"/>
	<rect x="-232" y="313" class="st0" width="4" height="2"/>
	<rect x="-226" y="313" class="st0" width="4" height="2"/>
	<path class="st0" d="M-251,324h-2v3c0,0.6,0.4,1,1,1h3v-2h-2V324z"/>
	<path class="st0" d="M-243,326h-2v2h3c0.6,0,1-0.4,1-1v-3h-2V326z"/>
	<rect x="-241" y="282" class="st0" width="3" height="2"/>
	<rect x="-241" y="286" class="st0" width="3" height="2"/>
	<rect x="-241" y="290" class="st0" width="3" height="2"/>
	<path class="st0" d="M-255,292h1v1h2v-1h1c1.2,0,2-0.8,2-2v-2c0-1.2-0.8-2-2-2h-4v-2h4v1h2v-1c0-1.2-0.8-2-2-2h-1v-1h-2v1h-1
		c-1.2,0-2,0.8-2,2v2c0,1.2,0.8,2,2,2h4v2h-4v-1h-2v1C-257,291.2-256.2,292-255,292z"/>
</g>
</svg>
