<?xml version="1.0" encoding="utf-8"?>
<!-- Generator: Adobe Illustrator 19.0.0, SVG Export Plug-In . SVG Version: 6.00 Build 0)  -->
<svg version="1.1" id="Capa_1" xmlns="http://www.w3.org/2000/svg" xmlns:xlink="http://www.w3.org/1999/xlink" x="0px" y="0px"
	 viewBox="-41 43.9 515.1 515.1" style="enable-background:new -41 43.9 515.1 515.1;" xml:space="preserve">
<style type="text/css">
	.st0{fill:#999999;}
</style>
<g>
	<g id="access-alarms">
		<path class="st0" d="M471.5,143.4L354.3,43.9l-33.1,38.3l117.3,99.4L471.5,143.4z M112,84.7L78.8,46.5l-117.3,96.9l33.2,38.3
			L112,84.7z M229.3,202H191v153l119.9,74l20.4-30.6l-102-61.2V202z M216.5,100C89,100-13,202-13,329.5S89,559,216.5,559
			S446,457,446,329.5S344,100,216.5,100z M216.5,508C117.1,508,38,429,38,329.5C38,230.1,117.1,151,216.5,151S395,230.1,395,329.5
			C395,429,316,508,216.5,508z"/>
	</g>
</g>
</svg>
