<?xml version="1.0" encoding="utf-8"?>
<!-- Generator: Adobe Illustrator 19.0.0, SVG Export Plug-In . SVG Version: 6.00 Build 0)  -->
<svg version="1.1" id="Layer_1" xmlns="http://www.w3.org/2000/svg" xmlns:xlink="http://www.w3.org/1999/xlink" x="0px" y="0px"
	 viewBox="-43 45 512 512" style="enable-background:new -43 45 512 512;" xml:space="preserve">
<style type="text/css">
	.st0{fill:#999999;}
</style>
<g>
	<g>
		<path class="st0" d="M175,246.6h-64.5c-5.5,0-10,4.5-10,10c0,5.5,4.5,10,10,10H164c-4.7,25.3-26.9,44.4-53.5,44.4
			c-30,0-54.5-24.4-54.5-54.5s24.4-54.5,54.5-54.5c14.6,0,28.2,5.7,38.5,16c3.9,3.9,10.3,3.9,14.2,0c3.9-3.9,3.9-10.3,0-14.2
			c-14.1-14.1-32.8-21.8-52.7-21.8c-41.1,0-74.5,33.4-74.5,74.5s33.4,74.5,74.5,74.5s74.5-33.4,74.5-74.5
			C185,251.1,180.5,246.6,175,246.6z"/>
	</g>
</g>
<g>
	<g>
		<path class="st0" d="M427.3,137.2H226.7l-26.9-81.4c-1.4-4.1-5.2-6.9-9.5-6.9H-1.3C-24.3,49-43,67.7-43,90.7v332.4
			c0,23,18.7,41.7,41.7,41.7h203.1l27.1,81.4c1.4,4.1,5.2,6.9,9.5,6.9h188.9c23,0,41.7-18.7,41.7-41.7V178.9
			C469,155.9,450.3,137.2,427.3,137.2z M-1.3,444.7c-11.9,0-21.6-9.7-21.6-21.6V90.7c0-11.9,9.7-21.6,21.6-21.6H183l70.7,213.5
			c0,0,0,0,0,0l53.7,162.1H-1.3z M294.4,328.3c0.8,1.1,10.8,14.9,26.4,34.1c-4.4,5.8-9,11.5-13.9,17l-29.7-89.7h87.4
			c-6.2,13-16.9,33.8-31.7,55.7c-13.6-16.9-22.1-28.6-22.2-28.9c-3.3-4.5-9.5-5.5-14-2.2C292.2,317.5,291.2,323.8,294.4,328.3z
			 M222.9,464.8h75.2l-55.5,59.1L222.9,464.8z M448.9,511.3c0,11.9-9.7,21.6-21.6,21.6H261.6l67-71.3l0,0c0.3-0.3,0.6-0.6,0.8-1
			c1.9-2.6,2.4-6,1.4-9l-16.7-50.4c7.1-7.4,13.7-15.1,19.8-23c13.3,15.8,29,33.4,45.8,50.2c2,2,4.5,2.9,7.1,2.9s5.1-1,7.1-2.9
			c3.9-3.9,3.9-10.3,0-14.2c-17.5-17.5-34-36.2-47.7-52.6c21.3-30.5,35-59.5,40.5-72h21.5c5.5,0,10-4.5,10-10s-4.5-10-10-10H380
			c0,0,0,0-0.1,0H342v-18c0-5.5-4.5-10-10-10s-10,4.5-10,10v18h-51.4l-37.2-112.3h194c11.9,0,21.6,9.7,21.6,21.6L448.9,511.3
			L448.9,511.3z"/>
	</g>
</g>
</svg>
