<?xml version="1.0" encoding="utf-8"?>
<!-- Generator: Adobe Illustrator 19.0.0, SVG Export Plug-In . SVG Version: 6.00 Build 0)  -->
<svg version="1.1" id="Capa_1" xmlns="http://www.w3.org/2000/svg" xmlns:xlink="http://www.w3.org/1999/xlink" x="0px" y="0px"
	 viewBox="-275 367 60 60" style="enable-background:new -275 367 60 60;" xml:space="preserve">
<style type="text/css">
	.st0{fill:#188AE2;}
</style>
<g>
	<g>
		<rect x="-233.4" y="397.8" class="st0" width="1.6" height="2.5"/>
		<path class="st0" d="M-268.1,383.8h9.1c0.5,0,0.8-0.3,0.8-0.8v-9.1h24.8v2.5h1.6v-3.3c0-0.5-0.3-0.8-0.8-0.8H-259l0,0
			c-0.1,0-0.2,0-0.2,0.1h-0.1c-0.1,0.1-0.2,0.1-0.2,0.2l-9.9,9.9c-0.1,0.1-0.1,0.2-0.2,0.2v0.1c0,0.1-0.1,0.2-0.1,0.2l0,0v37.9
			c0,0.5,0.3,0.8,0.8,0.8h29.7v-1.6h-28.9V383.8z M-259.9,382.1h-7.1l3.5-3.5l3.5-3.5V382.1L-259.9,382.1z"/>
		<path class="st0" d="M-229.3,396.2c5,0,9.1-4,9.1-9.1s-4-9.1-9.1-9.1s-9.1,4-9.1,9.1S-234.4,396.2-229.3,396.2z M-229.3,379.7
			c4.1,0,7.4,3.3,7.4,7.4s-3.3,7.4-7.4,7.4s-7.4-3.3-7.4-7.4S-233.4,379.7-229.3,379.7z"/>
		<path class="st0" d="M-231,391.2h0.8v1.6h1.6v-1.6h0.8c1,0,1.7-0.7,1.7-1.6v-1.7c0-1-0.7-1.6-1.7-1.6h-3.3v-1.6h3.3v0.8h1.7v-0.8
			c0-1-0.7-1.6-1.7-1.6h-0.8v-1.6h-1.6v1.6h-0.8c-1,0-1.6,0.7-1.6,1.6v1.6c0,1,0.7,1.6,1.6,1.6h3.3v1.7h-3.3v-0.8h-1.6v0.8
			C-232.6,390.6-232,391.2-231,391.2z"/>
		<path class="st0" d="M-221.1,402h-14.9c-0.5,0-0.8,0.3-0.8,0.8v18.1c0,0.5,0.3,0.8,0.8,0.8h14.9c0.5,0,0.8-0.3,0.8-0.8v-18.1
			C-220.3,402.3-220.6,402-221.1,402z M-221.9,403.6v3.3h-13.2v-3.3H-221.9z M-235.1,420.1v-11.6h13.2v11.6H-235.1z"/>
		<rect x="-232.6" y="410.2" class="st0" width="1.6" height="1.6"/>
		<rect x="-229.3" y="410.2" class="st0" width="1.6" height="1.6"/>
		<rect x="-226" y="410.2" class="st0" width="1.6" height="1.6"/>
		<rect x="-232.6" y="413.5" class="st0" width="1.6" height="1.6"/>
		<rect x="-229.3" y="413.5" class="st0" width="1.6" height="1.6"/>
		<rect x="-226" y="413.5" class="st0" width="1.6" height="1.6"/>
		<rect x="-232.6" y="416.8" class="st0" width="1.6" height="1.6"/>
		<rect x="-229.3" y="416.8" class="st0" width="1.6" height="1.6"/>
		<rect x="-226" y="416.8" class="st0" width="1.6" height="1.6"/>
		<rect x="-234.3" y="404.4" class="st0" width="1.6" height="1.6"/>
		<rect x="-231.8" y="404.4" class="st0" width="1.6" height="1.6"/>
		<rect x="-229.3" y="404.4" class="st0" width="1.6" height="1.6"/>
		<rect x="-226.9" y="404.4" class="st0" width="1.6" height="1.6"/>
		<rect x="-224.4" y="404.4" class="st0" width="1.6" height="1.6"/>
		<rect x="-254.1" y="376.4" class="st0" width="4.9" height="1.6"/>
		<rect x="-254.1" y="380.5" class="st0" width="12.4" height="1.6"/>
		<path class="st0" d="M-262.1,387.3l-2.5,2.5l1.2,1.2l1.1-1.1v11.2h1.7v-11.2l1.1,1.1l1.2-1.2l-2.5-2.5
			C-261.3,387-261.7,387-262.1,387.3z"/>
		<path class="st0" d="M-255.1,394.3l1.1-1.1v7.9h1.6v-7.9l1.1,1.1l1.2-1.2l-2.5-2.5c-0.3-0.3-0.8-0.3-1.2,0l-2.5,2.5L-255.1,394.3z
			"/>
		<path class="st0" d="M-244.2,388.3l1.1,1.1l1.2-1.2l-2.5-2.5c-0.3-0.3-0.8-0.3-1.2,0l-2.5,2.5l1.2,1.2l1.1-1.1v12.9h1.6V388.3
			L-244.2,388.3z"/>
		<rect x="-262.3" y="405.3" class="st0" width="12.4" height="1.6"/>
		<rect x="-262.3" y="409.4" class="st0" width="21.5" height="1.6"/>
		<rect x="-262.3" y="413.5" class="st0" width="21.5" height="1.6"/>
		<rect x="-248.3" y="405.3" class="st0" width="3.3" height="1.6"/>
	</g>
</g>
</svg>
