<?xml version="1.0" encoding="utf-8"?>
<!-- Generator: Adobe Illustrator 19.0.0, SVG Export Plug-In . SVG Version: 6.00 Build 0)  -->
<svg version="1.1" id="Capa_1" xmlns="http://www.w3.org/2000/svg" xmlns:xlink="http://www.w3.org/1999/xlink" x="0px" y="0px"
	 viewBox="-275 367 60 60" style="enable-background:new -275 367 60 60;" xml:space="preserve">
<style type="text/css">
	.st0{fill:#188AE2;stroke:#FFFFFF;stroke-width:0.5;stroke-miterlimit:10;}
</style>
<g>
	<path class="st0" d="M-273,372.7v44.8h1.9v3.7h9.3v-3.7h33.6v3.7h9.3v-3.7h1.9v-7.5v-5.6v-18.7v-5.6v-7.5H-273z M-263.7,419.4h-5.6
		v-1.9h5.6V419.4z M-220.7,419.4h-5.6v-1.9h5.6V419.4z M-222.6,380.2h-3.7v5.6h3.7v18.7h-3.7v5.6h3.7l0,1.9l-44.8,0l0-33.6l44.8,0
		V380.2z M-220.7,382.1h1.9v1.9h-1.9h-3.7v-1.9H-220.7z M-224.5,408.2v-1.9h3.7h1.9v1.9h-1.9H-224.5z M-218.9,404.5h-1.9v-18.7h1.9
		V404.5z M-220.7,380.2v-1.9c0-1-0.8-1.9-1.9-1.9h-44.8c-1,0-1.9,0.8-1.9,1.9v33.6c0,1,0.8,1.9,1.9,1.9h44.8c1,0,1.9-0.8,1.9-1.9
		v-1.9h1.9v5.6h-9.3h-33.6h-9.3v-41.1h52.3v5.6H-220.7z"/>
	<circle class="st0" cx="-254.3" cy="395.1" r="0.9"/>
	<path class="st0" d="M-264.6,396.1h3.8c0.2,1.1,0.6,2.1,1.2,3l-2.7,2.7c-0.4,0.4-0.4,1,0,1.3c0.2,0.2,0.4,0.3,0.7,0.3
		s0.5-0.1,0.7-0.3l2.7-2.7c0.9,0.6,1.9,1.1,3,1.2v3.8c0,0.5,0.4,0.9,0.9,0.9s0.9-0.4,0.9-0.9v-3.8c1.1-0.2,2.1-0.6,3-1.2l2.7,2.7
		c0.2,0.2,0.4,0.3,0.7,0.3c0.2,0,0.5-0.1,0.7-0.3c0.4-0.4,0.4-1,0-1.3l-2.7-2.7c0.6-0.9,1.1-1.9,1.2-3h3.8c0.5,0,0.9-0.4,0.9-0.9
		s-0.4-0.9-0.9-0.9h-3.8c-0.2-1.1-0.6-2.1-1.2-3l2.7-2.7c0.4-0.4,0.4-1,0-1.3s-1-0.4-1.3,0l-2.7,2.7c-0.9-0.6-1.9-1.1-3-1.2v-3.8
		c0-0.5-0.4-0.9-0.9-0.9s-0.9,0.4-0.9,0.9v3.8c-1.1,0.2-2.1,0.6-3,1.2l-2.7-2.7c-0.4-0.4-1-0.4-1.3,0s-0.4,1,0,1.3l2.7,2.7
		c-0.6,0.9-1.1,1.9-1.2,3h-3.8c-0.5,0-0.9,0.4-0.9,0.9S-265.1,396.1-264.6,396.1z M-254.3,390.5c2.6,0,4.7,2.1,4.7,4.7
		s-2.1,4.7-4.7,4.7s-4.7-2.1-4.7-4.7S-256.9,390.5-254.3,390.5z"/>
	<path class="st0" d="M-238.5,395.1c-0.5,0-0.9,0.4-0.9,0.9v0.9c0,0.5,0.4,0.9,0.9,0.9c0.5,0,0.9-0.4,0.9-0.9v-0.9
		C-237.5,395.6-238,395.1-238.5,395.1z"/>
	<path class="st0" d="M-233.8,395.1c-0.5,0-0.9,0.4-0.9,0.9v0.9c0,0.5,0.4,0.9,0.9,0.9s0.9-0.4,0.9-0.9v-0.9
		C-232.9,395.6-233.3,395.1-233.8,395.1z"/>
	<path class="st0" d="M-229.1,395.1c-0.5,0-0.9,0.4-0.9,0.9v0.9c0,0.5,0.4,0.9,0.9,0.9c0.5,0,0.9-0.4,0.9-0.9v-0.9
		C-228.2,395.6-228.6,395.1-229.1,395.1z"/>
	<path class="st0" d="M-238.5,398.9c-0.5,0-0.9,0.4-0.9,0.9v0.9c0,0.5,0.4,0.9,0.9,0.9c0.5,0,0.9-0.4,0.9-0.9v-0.9
		C-237.5,399.3-238,398.9-238.5,398.9z"/>
	<path class="st0" d="M-233.8,398.9c-0.5,0-0.9,0.4-0.9,0.9v0.9c0,0.5,0.4,0.9,0.9,0.9s0.9-0.4,0.9-0.9v-0.9
		C-232.9,399.3-233.3,398.9-233.8,398.9z"/>
	<path class="st0" d="M-229.1,398.9c-0.5,0-0.9,0.4-0.9,0.9v0.9c0,0.5,0.4,0.9,0.9,0.9c0.5,0,0.9-0.4,0.9-0.9v-0.9
		C-228.2,399.3-228.6,398.9-229.1,398.9z"/>
	<path class="st0" d="M-238.5,402.6c-0.5,0-0.9,0.4-0.9,0.9v0.9c0,0.5,0.4,0.9,0.9,0.9c0.5,0,0.9-0.4,0.9-0.9v-0.9
		C-237.5,403-238,402.6-238.5,402.6z"/>
	<path class="st0" d="M-233.8,402.6c-0.5,0-0.9,0.4-0.9,0.9v0.9c0,0.5,0.4,0.9,0.9,0.9s0.9-0.4,0.9-0.9v-0.9
		C-232.9,403-233.3,402.6-233.8,402.6z"/>
	<path class="st0" d="M-229.1,402.6c-0.5,0-0.9,0.4-0.9,0.9v0.9c0,0.5,0.4,0.9,0.9,0.9c0.5,0,0.9-0.4,0.9-0.9v-0.9
		C-228.2,403-228.6,402.6-229.1,402.6z"/>
	<path class="st0" d="M-227.3,386.7h-13.1v5.6h13.1V386.7z M-229.1,390.5h-9.3v-1.9h9.3V390.5z"/>
</g>
</svg>
