<?xml version="1.0" encoding="utf-8"?>
<!-- Generator: Adobe Illustrator 19.0.0, SVG Export Plug-In . SVG Version: 6.00 Build 0)  -->
<svg version="1.1" id="Capa_1" xmlns="http://www.w3.org/2000/svg" xmlns:xlink="http://www.w3.org/1999/xlink" x="0px" y="0px"
	 viewBox="-64 156.8 481.2 481.2" style="enable-background:new -64 156.8 481.2 481.2;" xml:space="preserve">
<style type="text/css">
	.st0{fill:#188AE2;stroke:#FFFFFF;stroke-width:10;stroke-miterlimit:10;}
</style>
<g>
	<g>
		<path class="st0" d="M120.7,460l72.6,22c-0.1,0.5-0.3,1-0.5,1.5c-1.9,5.3-5.9,8.2-12.4,9.2c-23.8,3.8-63.4,1.4-63.8,1.4
			c-6.1-0.4-11.4,4.3-11.7,10.4s4.3,11.4,10.4,11.7c1.8,0.1,42.3,2.6,68.7-1.7c26.2-4.2,33.6-27.2,32.3-41.7
			c-0.5-4.5-3.5-8.3-7.9-9.6l-81.3-24.6c-40.1-12.1-84.1,10.3-86,11.2c-0.2,0.1-0.5,0.2-0.6,0.4l-80.9,48.9
			c-5.3,3.1-6.9,10-3.8,15.3c2.1,3.4,5.7,5.4,9.5,5.4c1.9,0,3.9-0.6,5.7-1.6l80.5-48.5C55.1,467.7,90.5,450.8,120.7,460z"/>
		<path class="st0" d="M397.6,441.4c-6.4-11.6-26.3-30.2-56.4-16.9c-28.5,12.7-88.6,41.6-89.3,41.9c-5.5,2.7-7.9,9.2-5.2,14.8
			s9.3,7.9,14.8,5.2c0.6-0.3,60.5-29.1,88.6-41.6c8-3.6,14.8-3.6,20.6,0c0.2,0.1,0.3,0.2,0.5,0.3L220.5,555.5
			c-10.7,7.9-24.3,11.1-37.3,9.1L48.7,543.1c-3.1-0.5-6.4,0.4-8.9,2.4l-34,28.4c-4.7,3.9-5.4,10.9-1.4,15.6c2.2,2.6,5.4,4,8.5,4
			c2.5,0,5-0.8,7.1-2.6l30.1-25.1l129.6,20.7c18.9,3.1,38.5-1.8,54-13l160.8-117.8C398.9,452.3,400.3,446.3,397.6,441.4z"/>
		<path class="st0" d="M192.1,428.6c17.3,0,33.5-6.7,45.8-18.9c25.2-25.2,25.2-66.2,0-91.4c-12.2-12.2-28.5-18.9-45.8-18.9
			c-17.3,0-33.5,6.7-45.8,18.9c-25.2,25.2-25.2,66.2,0,91.4C158.7,421.9,174.9,428.6,192.1,428.6z M162.1,334c8-8,18.7-12.5,30-12.5
			c11.4,0,22,4.4,30,12.5c16.5,16.5,16.5,43.5,0,60.1c-8,8-18.7,12.5-30,12.5c-11.4,0-22-4.4-30-12.5
			C145.6,377.5,145.6,350.5,162.1,334z"/>
		<path class="st0" d="M268,302.3c13.5,0,26.2-5.3,35.7-14.8c19.7-19.7,19.7-51.7,0-71.4c-9.5-9.5-22.2-14.8-35.7-14.8
			s-26.2,5.3-35.7,14.8c-19.7,19.7-19.7,51.7,0,71.4C241.9,297.1,254.6,302.3,268,302.3z M248.1,231.8c5.4-5.4,12.5-8.3,20.1-8.3
			s14.7,3,20.1,8.3c11,11,11,29,0,40c-5.4,5.4-12.5,8.3-20.1,8.3s-14.7-3-20.1-8.3C237.1,260.8,237.1,242.8,248.1,231.8z"/>
	</g>
</g>
</svg>
