<?xml version="1.0" encoding="utf-8"?>
<!-- Generator: Adobe Illustrator 19.0.0, SVG Export Plug-In . SVG Version: 6.00 Build 0)  -->
<svg version="1.1" id="Capa_1" xmlns="http://www.w3.org/2000/svg" xmlns:xlink="http://www.w3.org/1999/xlink" x="0px" y="0px"
	 viewBox="-275 367 60 60" style="enable-background:new -275 367 60 60;" xml:space="preserve">
<style type="text/css">
	.st0{fill:#188AE2;stroke:#FFFFFF;stroke-width:0.5;stroke-miterlimit:10;}
</style>
<g>
	<path class="st0" d="M-217.4,373.4c0-2-1.6-3.7-3.7-3.7h-47.8c-2,0-3.7,1.6-3.7,3.7c0,1.7,1.2,3.1,2.8,3.5v44.6l2.8-2.8l5.5,5.5
		l5.5-5.5l5.5,5.5l5.5-5.5l5.5,5.5l5.5-5.5l5.5,5.5l5.5-5.5l2.8,2.8v-44.6C-218.6,376.5-217.4,375.1-217.4,373.4z M-222,417.1
		l-0.9-0.9l-5.5,5.5l-5.5-5.5l-5.5,5.5l-5.5-5.5l-5.5,5.5l-5.5-5.5l-5.5,5.5l-5.5-5.5l-0.9,0.9v-40v-2.8h45.9v2.8V417.1z
		 M-220.2,375v-2.5h-49.6v2.5c-0.5-0.3-0.9-0.9-0.9-1.6c0-1,0.8-1.8,1.8-1.8h47.8c1,0,1.8,0.8,1.8,1.8
		C-219.3,374.1-219.6,374.7-220.2,375z"/>
	<path class="st0" d="M-232.1,406.5h-13.8c-0.5,0-0.9,0.4-0.9,0.9c0,0.5,0.4,0.9,0.9,0.9h13.8c0.5,0,0.9-0.4,0.9-0.9
		C-231.2,406.9-231.6,406.5-232.1,406.5z"/>
	<path class="st0" d="M-228.2,406.7c-0.2,0.2-0.3,0.4-0.3,0.7c0,0.2,0.1,0.5,0.3,0.7c0.2,0.2,0.4,0.3,0.7,0.3s0.5-0.1,0.7-0.3
		c0.2-0.2,0.3-0.4,0.3-0.7c0-0.2-0.1-0.5-0.3-0.7C-227.2,406.4-227.8,406.4-228.2,406.7z"/>
	<path class="st0" d="M-227.5,393.6h-13.8c-0.5,0-0.9,0.4-0.9,0.9c0,0.5,0.4,0.9,0.9,0.9h13.8c0.5,0,0.9-0.4,0.9-0.9
		C-226.6,394-227,393.6-227.5,393.6z"/>
	<path class="st0" d="M-227.5,400h-9.2c-0.5,0-0.9,0.4-0.9,0.9c0,0.5,0.4,0.9,0.9,0.9h9.2c0.5,0,0.9-0.4,0.9-0.9
		C-226.6,400.4-227,400-227.5,400z"/>
	<path class="st0" d="M-246.8,400.9c0,0.5,0.4,0.9,0.9,0.9h1.8c0.5,0,0.9-0.4,0.9-0.9c0-0.5-0.4-0.9-0.9-0.9h-1.8
		C-246.4,400-246.8,400.4-246.8,400.9z"/>
	<path class="st0" d="M-231.2,388.1c0-0.5-0.4-0.9-0.9-0.9h-13.8c-0.5,0-0.9,0.4-0.9,0.9s0.4,0.9,0.9,0.9h13.8
		C-231.6,389-231.2,388.6-231.2,388.1z"/>
	<path class="st0" d="M-228.2,387.4c-0.2,0.2-0.3,0.4-0.3,0.7c0,0.2,0.1,0.5,0.3,0.7c0.2,0.2,0.4,0.3,0.7,0.3c0.2,0,0.5-0.1,0.7-0.3
		c0.2-0.2,0.3-0.4,0.3-0.7s-0.1-0.5-0.3-0.7C-227.2,387.1-227.9,387.1-228.2,387.4z"/>
	<path class="st0" d="M-244.3,395.2c0.2-0.2,0.3-0.4,0.3-0.7c0-0.2-0.1-0.5-0.3-0.7c-0.3-0.3-1-0.3-1.3,0c-0.2,0.2-0.3,0.4-0.3,0.7
		c0,0.2,0.1,0.5,0.3,0.7c0.2,0.2,0.4,0.3,0.7,0.3S-244.5,395.3-244.3,395.2z"/>
	<path class="st0" d="M-239.8,401.6c0.2-0.2,0.3-0.4,0.3-0.7c0-0.2-0.1-0.5-0.3-0.7c-0.3-0.3-1-0.3-1.3,0c-0.2,0.2-0.3,0.4-0.3,0.7
		c0,0.2,0.1,0.5,0.3,0.7c0.2,0.2,0.4,0.3,0.7,0.3S-239.9,401.8-239.8,401.6z"/>
	<path class="st0" d="M-256.9,389.1v-1c0-0.5-0.4-0.9-0.9-0.9c-0.5,0-0.9,0.4-0.9,0.9v1c-1,0.2-1.9,0.7-2.6,1.5
		c-0.6,0.7-0.8,1.5-0.7,2.4c0.1,0.9,0.6,1.7,1.3,2.3l2,1.6v5c-1.1-0.4-1.8-1.4-1.8-2.6c0-0.5-0.4-0.9-0.9-0.9s-0.9,0.4-0.9,0.9
		c0,2.2,1.6,4.1,3.7,4.5v0.8c0,0.5,0.4,0.9,0.9,0.9c0.5,0,0.9-0.4,0.9-0.9v-0.8c1-0.2,1.9-0.7,2.6-1.5c0.6-0.7,0.8-1.5,0.7-2.4
		c-0.1-0.9-0.6-1.7-1.3-2.3l-2-1.6v-5c1.1,0.4,1.8,1.4,1.8,2.6c0,0.5,0.4,0.9,0.9,0.9s0.9-0.4,0.9-0.9
		C-253.3,391.4-254.8,389.5-256.9,389.1z M-256,399c0.3,0.2,0.5,0.6,0.6,1c0,0.4-0.1,0.7-0.3,1c-0.3,0.4-0.7,0.6-1.2,0.8v-3.6
		L-256,399z M-259.7,393.9c-0.3-0.2-0.5-0.6-0.6-1c0-0.4,0.1-0.7,0.3-1c0.3-0.4,0.7-0.6,1.2-0.8v3.6L-259.7,393.9z"/>
	<circle class="st0" cx="-235.8" cy="379.8" r="0.9"/>
	<circle class="st0" cx="-239.5" cy="379.8" r="0.9"/>
	<circle class="st0" cx="-232.1" cy="379.8" r="0.9"/>
	<circle class="st0" cx="-243.2" cy="379.8" r="0.9"/>
	<circle class="st0" cx="-228.5" cy="379.8" r="0.9"/>
	<circle class="st0" cx="-254.2" cy="379.8" r="0.9"/>
	<circle class="st0" cx="-250.5" cy="379.8" r="0.9"/>
	<circle class="st0" cx="-246.8" cy="379.8" r="0.9"/>
	<circle class="st0" cx="-224.8" cy="379.8" r="0.9"/>
	<circle class="st0" cx="-257.9" cy="379.8" r="0.9"/>
	<circle class="st0" cx="-261.5" cy="379.8" r="0.9"/>
	<circle class="st0" cx="-265.2" cy="379.8" r="0.9"/>
</g>
</svg>
