<?xml version="1.0" encoding="utf-8"?>
<!-- Generator: Adobe Illustrator 19.0.0, SVG Export Plug-In . SVG Version: 6.00 Build 0)  -->
<svg version="1.1" id="Layer_1" xmlns="http://www.w3.org/2000/svg" xmlns:xlink="http://www.w3.org/1999/xlink" x="0px" y="0px"
	 viewBox="-49 141 512 512" style="enable-background:new -49 141 512 512;" xml:space="preserve">
<style type="text/css">
	.st0{fill:#188AE2;}
</style>
<g>
	<g>
		
			<rect x="30.2" y="469.2" transform="matrix(-0.7071 -0.7071 0.7071 -0.7071 -308.9813 929.9139)" class="st0" width="15.8" height="119.4"/>
		<polygon class="st0" points="339.3,312.9 399.7,252.5 399.7,291.4 415.5,291.4 415.5,225.5 344.2,225.5 344.2,241.3 388.5,241.3 
			328.1,301.7 		"/>
		<path class="st0" d="M88.2,397c0-38.1,18.5-74.2,49.5-96.5l-9.2-12.9C93.4,312.9,72.4,353.8,72.4,397
			c0,74.2,60.4,134.6,134.6,134.6v-15.8C141.5,515.8,88.2,462.5,88.2,397z"/>
		<path class="st0" d="M325.8,397c0,46.3-27.2,88.7-69.3,108l6.6,14.4c47.7-21.9,78.5-69.9,78.5-122.4
			c0-74.2-60.4-134.6-134.6-134.6v15.8C272.5,278.2,325.8,331.5,325.8,397z"/>
		<path class="st0" d="M162.1,370.6c0,18.9,15.4,34.3,34.3,34.3h21.1c10.2,0,18.5,8.3,18.5,18.5c0,5-1.9,9.6-5.5,13.1
			c-3.4,3.4-8.2,5.4-13,5.4h-21.1c-10.2,0-18.5-8.3-18.5-18.5h-15.8c0,18.9,15.4,34.3,34.3,34.3h2.6v23.8h15.8v-23.8h2.6
			c9,0,17.8-3.7,24.1-10c6.6-6.4,10.2-15.1,10.2-24.3c0-18.9-15.4-34.3-34.3-34.3h-21.1c-10.2,0-18.5-8.3-18.5-18.5
			c0-4.9,2-9.7,5.4-13.1c3.4-3.4,8.2-5.4,13.1-5.4h21.1c10.2,0,18.5,8.3,18.5,18.5h15.8c0-18.9-15.4-34.3-34.3-34.3h-2.6v-23.8
			h-15.8v23.8h-2.6c-9.2,0-17.8,3.6-24.3,10C165.7,352.8,162.1,361.4,162.1,370.6z"/>
		<rect x="275.6" y="389.1" class="st0" width="26.4" height="15.8"/>
		<rect x="112" y="389.1" class="st0" width="26.4" height="15.8"/>
		<path class="st0" d="M300.4,425.7l-15.1-4.7c-6.9,22.4-23.1,40.8-44.6,50.5l6.6,14.4C272.8,474.4,292.2,452.4,300.4,425.7z"/>
		<path class="st0" d="M113.6,368.3l15.1,4.7c7.6-24.5,26.4-44.3,50.5-52.9l-5.4-14.9C145.2,315.4,122.6,339.1,113.6,368.3z"/>
		<polygon class="st0" points="141,238.6 156.9,238.6 156.9,188.5 101.4,188.5 101.4,204.3 141,204.3 		"/>
		<rect x="-4.1" y="188.5" class="st0" width="58.1" height="15.8"/>
		<rect x="64.5" y="188.5" class="st0" width="21.1" height="15.8"/>
		<rect x="-4.1" y="220.2" class="st0" width="110.8" height="15.8"/>
		<rect x="-4.1" y="251.8" class="st0" width="52.8" height="15.8"/>
		<polygon class="st0" points="273,555.4 257.1,555.4 257.1,605.5 312.6,605.5 312.6,589.7 273,589.7 		"/>
		<rect x="360.1" y="589.7" class="st0" width="58.1" height="15.8"/>
		<rect x="328.4" y="589.7" class="st0" width="21.1" height="15.8"/>
		<rect x="307.3" y="558" class="st0" width="110.8" height="15.8"/>
		<rect x="365.4" y="526.3" class="st0" width="52.8" height="15.8"/>
	</g>
</g>
</svg>
